<mxfile host="app.diagrams.net" agent="Mozilla/5.0 (Windows NT 10.0; Win64; x64; rv:142.0) Gecko/20100101 Firefox/142.0" version="28.2.2">
  <diagram name="PÃ¡gina-1" id="55zIqk8iT0ZHCcuBCvRA">
    <mxGraphModel dx="334" dy="455" grid="1" gridSize="10" guides="1" tooltips="1" connect="1" arrows="1" fold="1" page="1" pageScale="1" pageWidth="827" pageHeight="1169" math="0" shadow="0">
      <root>
        <mxCell id="0" />
        <mxCell id="1" parent="0" />
        <mxCell id="i34-RrHuCUPDwpIUW3h6-1" value="Actor" style="shape=umlActor;verticalLabelPosition=bottom;verticalAlign=top;html=1;outlineConnect=0;" vertex="1" parent="1">
          <mxGeometry x="120" y="160" width="30" height="60" as="geometry" />
        </mxCell>
        <mxCell id="i34-RrHuCUPDwpIUW3h6-2" value="" style="rounded=0;whiteSpace=wrap;html=1;" vertex="1" parent="1">
          <mxGeometry x="200" y="110" width="370" height="160" as="geometry" />
        </mxCell>
        <mxCell id="i34-RrHuCUPDwpIUW3h6-3" value="Consultar Historial de Frases" style="rounded=1;whiteSpace=wrap;html=1;arcSize=50;" vertex="1" parent="1">
          <mxGeometry x="230" y="160" width="140" height="60" as="geometry" />
        </mxCell>
        <mxCell id="i34-RrHuCUPDwpIUW3h6-8" style="rounded=0;orthogonalLoop=1;jettySize=auto;html=1;exitX=0;exitY=0.5;exitDx=0;exitDy=0;dashed=1;entryX=1.016;entryY=0.426;entryDx=0;entryDy=0;entryPerimeter=0;" edge="1" parent="1" source="i34-RrHuCUPDwpIUW3h6-4" target="i34-RrHuCUPDwpIUW3h6-3">
          <mxGeometry relative="1" as="geometry">
            <mxPoint x="380" y="180" as="targetPoint" />
            <mxPoint x="460" y="140" as="sourcePoint" />
          </mxGeometry>
        </mxCell>
        <mxCell id="i34-RrHuCUPDwpIUW3h6-10" value="&lt;font style=&quot;font-size: 9px;&quot;&gt;extend&lt;/font&gt;" style="edgeLabel;html=1;align=center;verticalAlign=middle;resizable=0;points=[];" vertex="1" connectable="0" parent="i34-RrHuCUPDwpIUW3h6-8">
          <mxGeometry x="-0.1186" y="-2" relative="1" as="geometry">
            <mxPoint as="offset" />
          </mxGeometry>
        </mxCell>
        <mxCell id="i34-RrHuCUPDwpIUW3h6-4" value="Copiar frase" style="rounded=1;whiteSpace=wrap;html=1;arcSize=50;" vertex="1" parent="1">
          <mxGeometry x="450" y="130" width="110" height="40" as="geometry" />
        </mxCell>
        <mxCell id="i34-RrHuCUPDwpIUW3h6-7" style="rounded=0;orthogonalLoop=1;jettySize=auto;html=1;exitX=0;exitY=0.5;exitDx=0;exitDy=0;dashed=1;entryX=1.016;entryY=0.588;entryDx=0;entryDy=0;entryPerimeter=0;" edge="1" parent="1" source="i34-RrHuCUPDwpIUW3h6-5" target="i34-RrHuCUPDwpIUW3h6-3">
          <mxGeometry relative="1" as="geometry" />
        </mxCell>
        <mxCell id="i34-RrHuCUPDwpIUW3h6-9" value="&lt;font style=&quot;font-size: 9px;&quot;&gt;extend&lt;/font&gt;" style="edgeLabel;html=1;align=center;verticalAlign=middle;resizable=0;points=[];" vertex="1" connectable="0" parent="i34-RrHuCUPDwpIUW3h6-7">
          <mxGeometry x="0.1355" y="2" relative="1" as="geometry">
            <mxPoint as="offset" />
          </mxGeometry>
        </mxCell>
        <mxCell id="i34-RrHuCUPDwpIUW3h6-5" value="Reproducir frase" style="rounded=1;whiteSpace=wrap;html=1;arcSize=50;" vertex="1" parent="1">
          <mxGeometry x="450" y="210" width="110" height="40" as="geometry" />
        </mxCell>
        <mxCell id="i34-RrHuCUPDwpIUW3h6-11" value="" style="endArrow=none;html=1;rounded=0;entryX=0;entryY=0.5;entryDx=0;entryDy=0;" edge="1" parent="1" source="i34-RrHuCUPDwpIUW3h6-1" target="i34-RrHuCUPDwpIUW3h6-3">
          <mxGeometry width="50" height="50" relative="1" as="geometry">
            <mxPoint x="240" y="330" as="sourcePoint" />
            <mxPoint x="290" y="280" as="targetPoint" />
          </mxGeometry>
        </mxCell>
      </root>
    </mxGraphModel>
  </diagram>
</mxfile>
